<svg width="40" height="40" viewBox="0 0 40 40" fill="none" xmlns="http://www.w3.org/2000/svg">
<circle cx="20" cy="20" r="20" fill="#CE4A6F"/>
<path fill-rule="evenodd" clip-rule="evenodd" d="M20.0001 8C13.3735 8 8 13.5083 8 20.3037C8 25.7399 11.4384 30.3519 16.2064 31.9789C16.8061 32.0927 17.0263 31.7119 17.0263 31.387C17.0263 31.0936 17.0152 30.1243 17.01 29.0962C13.6716 29.8405 12.9671 27.6445 12.9671 27.6445C12.4212 26.2224 11.6347 25.8442 11.6347 25.8442C10.546 25.0806 11.7168 25.0963 11.7168 25.0963C12.9218 25.1829 13.5563 26.3642 13.5563 26.3642C14.6266 28.2452 16.3636 27.7014 17.0484 27.387C17.1561 26.592 17.4671 26.0488 17.8102 25.7417C15.1449 25.4306 12.343 24.3756 12.343 19.6611C12.343 18.3178 12.8117 17.2202 13.5794 16.3585C13.4548 16.0484 13.044 14.7972 13.6956 13.1025C13.6956 13.1025 14.7033 12.7718 16.9965 14.3636C17.9537 14.091 18.9803 13.9543 20.0001 13.9496C21.0199 13.9543 22.0473 14.091 23.0063 14.3636C25.2967 12.7718 26.303 13.1025 26.303 13.1025C26.9562 14.7972 26.5452 16.0484 26.4206 16.3585C27.1901 17.2202 27.6557 18.3178 27.6557 19.6611C27.6557 24.3868 24.8484 25.4273 22.1762 25.732C22.6067 26.1138 22.9902 26.8625 22.9902 28.0105C22.9902 29.6565 22.9763 30.9815 22.9763 31.387C22.9763 31.7144 23.1923 32.098 23.8006 31.9772C28.566 30.3485 32 25.7381 32 20.3037C32 13.5083 26.6273 8 20.0001 8" fill="white" fill-opacity="0.2"/>
<path d="M20.0001 8C13.3735 8 8 13.5083 8 20.3037C8 25.7399 11.4384 30.3519 16.2064 31.9789C16.8061 32.0927 17.0263 31.7119 17.0263 31.387C17.0263 31.0936 17.0152 30.1243 17.01 29.0962C13.6716 29.8405 12.9671 27.6445 12.9671 27.6445C12.4212 26.2224 11.6347 25.8442 11.6347 25.8442C10.546 25.0806 11.7168 25.0963 11.7168 25.0963C12.9218 25.1829 13.5563 26.3642 13.5563 26.3642C14.6266 28.2452 16.3636 27.7014 17.0484 27.387C17.1561 26.592 17.4671 26.0488 17.8102 25.7417C15.1449 25.4306 12.343 24.3756 12.343 19.6611C12.343 18.3178 12.8117 17.2202 13.5794 16.3585C13.4548 16.0484 13.044 14.7972 13.6956 13.1025C13.6956 13.1025 14.7033 12.7718 16.9965 14.3636C17.9537 14.091 18.9803 13.9543 20.0001 13.9496C21.0199 13.9543 22.0473 14.091 23.0063 14.3636C25.2967 12.7718 26.303 13.1025 26.303 13.1025C26.9562 14.7972 26.5452 16.0484 26.4206 16.3585C27.1901 17.2202 27.6557 18.3178 27.6557 19.6611C27.6557 24.3868 24.8484 25.4273 22.1762 25.732C22.6067 26.1138 22.9902 26.8625 22.9902 28.0105C22.9902 29.6565 22.9763 30.9815 22.9763 31.387C22.9763 31.7144 23.1923 32.098 23.8006 31.9772C28.566 30.3485 32 25.7381 32 20.3037C32 13.5083 26.6273 8 20.0001 8" stroke="white"/>
</svg>
