<svg width="118" height="46" viewBox="0 0 118 46" fill="none" xmlns="http://www.w3.org/2000/svg">
<path d="M74 0H110C114.418 0 118 3.58172 118 8V38C118 42.4183 114.418 46 110 46H74V0Z" fill="#70CAF7"/>
<rect x="60.1987" width="30.4732" height="46" fill="url(#paint0_linear_517_192)"/>
<mask id="mask0_517_192" style="mask-type:alpha" maskUnits="userSpaceOnUse" x="0" y="0" width="81" height="46">
<rect width="81" height="46" rx="6" fill="#FF8181"/>
</mask>
<g mask="url(#mask0_517_192)">
<rect width="81" height="46" rx="8" fill="#FFE1E1"/>
<rect x="16.2" width="64.8" height="46" fill="#FFBEBE"/>
<rect x="43.5375" y="4" width="27.3375" height="37" fill="#FB8686"/>
<ellipse cx="10.125" cy="9" rx="6.075" ry="6" fill="#FB8686"/>
<path d="M28.3242 26.3398H31.8281C31.7578 27.4883 31.4414 28.5078 30.8789 29.3984C30.3242 30.2891 29.5469 30.9844 28.5469 31.4844C27.5547 31.9844 26.3594 32.2344 24.9609 32.2344C23.8672 32.2344 22.8867 32.0469 22.0195 31.6719C21.1523 31.2891 20.4102 30.7422 19.793 30.0312C19.1836 29.3203 18.7188 28.4609 18.3984 27.4531C18.0781 26.4453 17.918 25.3164 17.918 24.0664V22.8828C17.918 21.6328 18.082 20.5039 18.4102 19.4961C18.7461 18.4805 19.2227 17.6172 19.8398 16.9062C20.4648 16.1953 21.2109 15.6484 22.0781 15.2656C22.9453 14.8828 23.9141 14.6914 24.9844 14.6914C26.4062 14.6914 27.6055 14.9492 28.582 15.4648C29.5664 15.9805 30.3281 16.6914 30.8672 17.5977C31.4141 18.5039 31.7422 19.5352 31.8516 20.6914H28.3359C28.2969 20.0039 28.1602 19.4219 27.9258 18.9453C27.6914 18.4609 27.3359 18.0977 26.8594 17.8555C26.3906 17.6055 25.7656 17.4805 24.9844 17.4805C24.3984 17.4805 23.8867 17.5898 23.4492 17.8086C23.0117 18.0273 22.6445 18.3594 22.3477 18.8047C22.0508 19.25 21.8281 19.8125 21.6797 20.4922C21.5391 21.1641 21.4688 21.9531 21.4688 22.8594V24.0664C21.4688 24.9492 21.5352 25.7266 21.668 26.3984C21.8008 27.0625 22.0039 27.625 22.2773 28.0859C22.5586 28.5391 22.918 28.8828 23.3555 29.1172C23.8008 29.3438 24.3359 29.457 24.9609 29.457C25.6953 29.457 26.3008 29.3398 26.7773 29.1055C27.2539 28.8711 27.6172 28.5234 27.8672 28.0625C28.125 27.6016 28.2773 27.0273 28.3242 26.3398Z" fill="white"/>
<path d="M48.0234 14.9375V32H44.5078L37.6523 20.5625V32H34.1367V14.9375H37.6523L44.5195 26.3867V14.9375H48.0234Z" fill="white"/>
<path d="M53.0977 14.9375L56.6602 22.7188L60.2227 14.9375H64.0547L58.4414 25.7891V32H54.8789V25.7891L49.2539 14.9375H53.0977Z" fill="white"/>
</g>
<path d="M87.6246 14H110.479V32H87.6246V14Z" fill="white"/>
<path d="M106.941 11.3204H90.6555C88.5978 11.3204 86.9343 12.9581 86.9343 14.9838V31.0162C86.9343 33.0419 88.5978 34.6797 90.6555 34.6797H106.941C108.981 34.6797 110.636 33.0592 110.662 31.0507C108.228 29.7147 104.805 27.9045 101.574 26.4393C99.875 28.7319 97.1171 30.6627 93.7021 30.6627C89.9633 30.6627 88.7378 28.3007 88.5624 26.6807C88.3522 24.6466 89.3505 22.4311 93.8333 22.4311C95.7072 22.4311 98.036 22.9656 100.567 23.7326C101.442 22.1637 101.967 20.5864 101.967 20.5864H92.5294V19.7157H97.4063V18.0868H91.6099V17.0956H97.4063V14.4666H100.103V17.0956H105.9V18.0868H100.103V19.7157H104.804C104.804 19.7157 103.999 22.1465 102.773 24.4563C105.364 25.3271 108.07 26.3356 110.644 27.2062V14.9838C110.653 12.9665 108.99 11.3204 106.941 11.3204ZM89.4384 26.4908C89.4909 27.5425 89.9812 29.2924 93.1421 29.2924C95.8999 29.2924 98.0456 27.2234 99.385 25.4914C97.0213 24.5173 94.9106 23.8536 93.5886 23.8536C90.0162 23.8536 89.386 25.5772 89.4384 26.4908Z" fill="#0099E5"/>
<defs>
<linearGradient id="paint0_linear_517_192" x1="60.1987" y1="23" x2="90.6719" y2="23" gradientUnits="userSpaceOnUse">
<stop stop-color="#FB8686"/>
<stop offset="1" stop-color="#FB8686" stop-opacity="0"/>
</linearGradient>
</defs>
</svg>
