<svg width="159" height="46" viewBox="0 0 159 46" fill="none" xmlns="http://www.w3.org/2000/svg">
<rect x="0.318604" width="158.461" height="46" rx="8" fill="#91D16A"/>
<rect x="4.51624" y="4" width="150.065" height="38" rx="5" fill="black" fill-opacity="0.3"/>
<rect x="8.71387" y="8" width="141.67" height="30" rx="2" fill="#91D16A"/>
<ellipse cx="80.0736" cy="23" rx="9.44467" ry="9" fill="black" fill-opacity="0.3"/>
<path d="M24.9837 16.8555L20.3431 31H16.6048L22.9447 13.9375H25.3236L24.9837 16.8555ZM28.8392 31L24.1869 16.8555L23.8119 13.9375H26.2142L32.5892 31H28.8392ZM28.6283 24.6484V27.4023H19.6165V24.6484H28.6283Z" fill="white"/>
<path d="M41.3197 27.9648V18.3203H44.6947V31H41.5189L41.3197 27.9648ZM41.6947 25.3633L42.6908 25.3398C42.6908 26.1836 42.5931 26.9688 42.3978 27.6953C42.2025 28.4141 41.9095 29.0391 41.5189 29.5703C41.1283 30.0938 40.6361 30.5039 40.0423 30.8008C39.4486 31.0898 38.7494 31.2344 37.9447 31.2344C37.3275 31.2344 36.7572 31.1484 36.2337 30.9766C35.7181 30.7969 35.2728 30.5195 34.8978 30.1445C34.5306 29.7617 34.2415 29.2734 34.0306 28.6797C33.8275 28.0781 33.7259 27.3555 33.7259 26.5117V18.3203H37.1009V26.5352C37.1009 26.9102 37.1439 27.2266 37.2298 27.4844C37.3236 27.7422 37.4525 27.9531 37.6165 28.1172C37.7806 28.2812 37.972 28.3984 38.1908 28.4688C38.4173 28.5391 38.6673 28.5742 38.9408 28.5742C39.6361 28.5742 40.183 28.4336 40.5814 28.1523C40.9876 27.8711 41.2728 27.4883 41.4369 27.0039C41.6087 26.5117 41.6947 25.9648 41.6947 25.3633Z" fill="white"/>
<path d="M53.4837 18.3203V20.7109H46.1009V18.3203H53.4837ZM47.929 15.1914H51.304V27.1797C51.304 27.5469 51.3509 27.8281 51.4447 28.0234C51.5462 28.2188 51.6947 28.3555 51.89 28.4336C52.0853 28.5039 52.3314 28.5391 52.6283 28.5391C52.8392 28.5391 53.0267 28.5312 53.1908 28.5156C53.3626 28.4922 53.5072 28.4688 53.6244 28.4453L53.6361 30.9297C53.347 31.0234 53.0345 31.0977 52.6986 31.1523C52.3626 31.207 51.9915 31.2344 51.5853 31.2344C50.8431 31.2344 50.1947 31.1133 49.64 30.8711C49.0931 30.6211 48.6712 30.2227 48.3744 29.6758C48.0775 29.1289 47.929 28.4102 47.929 27.5195V15.1914Z" fill="white"/>
<path d="M54.5619 24.7891V24.543C54.5619 23.6133 54.6947 22.7578 54.9603 21.9766C55.2259 21.1875 55.6126 20.5039 56.1205 19.9258C56.6283 19.3477 57.2533 18.8984 57.9955 18.5781C58.7376 18.25 59.5892 18.0859 60.5501 18.0859C61.5111 18.0859 62.3665 18.25 63.1165 18.5781C63.8665 18.8984 64.4955 19.3477 65.0033 19.9258C65.5189 20.5039 65.9095 21.1875 66.1751 21.9766C66.4408 22.7578 66.5736 23.6133 66.5736 24.543V24.7891C66.5736 25.7109 66.4408 26.5664 66.1751 27.3555C65.9095 28.1367 65.5189 28.8203 65.0033 29.4062C64.4955 29.9844 63.8705 30.4336 63.1283 30.7539C62.3861 31.0742 61.5345 31.2344 60.5736 31.2344C59.6126 31.2344 58.7572 31.0742 58.0072 30.7539C57.265 30.4336 56.6361 29.9844 56.1205 29.4062C55.6126 28.8203 55.2259 28.1367 54.9603 27.3555C54.6947 26.5664 54.5619 25.7109 54.5619 24.7891ZM57.9369 24.543V24.7891C57.9369 25.3203 57.9837 25.8164 58.0775 26.2773C58.1712 26.7383 58.3197 27.1445 58.5228 27.4961C58.7337 27.8398 59.0072 28.1094 59.3431 28.3047C59.679 28.5 60.0892 28.5977 60.5736 28.5977C61.0423 28.5977 61.4447 28.5 61.7806 28.3047C62.1165 28.1094 62.3861 27.8398 62.5892 27.4961C62.7923 27.1445 62.9408 26.7383 63.0345 26.2773C63.1361 25.8164 63.1869 25.3203 63.1869 24.7891V24.543C63.1869 24.0273 63.1361 23.543 63.0345 23.0898C62.9408 22.6289 62.7884 22.2227 62.5775 21.8711C62.3744 21.5117 62.1048 21.2305 61.7689 21.0273C61.433 20.8242 61.0267 20.7227 60.5501 20.7227C60.0736 20.7227 59.6673 20.8242 59.3314 21.0273C59.0033 21.2305 58.7337 21.5117 58.5228 21.8711C58.3197 22.2227 58.1712 22.6289 58.0775 23.0898C57.9837 23.543 57.9369 24.0273 57.9369 24.543Z" fill="white"/>
<path d="M80.0736 31H76.3587L76.3822 28.2578H80.0736C80.9955 28.2578 81.7728 28.0508 82.4056 27.6367C83.0384 27.2148 83.515 26.6016 83.8353 25.7969C84.1634 24.9922 84.3275 24.0195 84.3275 22.8789V22.0469C84.3275 21.1719 84.2337 20.4023 84.0462 19.7383C83.8665 19.0742 83.597 18.5156 83.2376 18.0625C82.8783 17.6094 82.4369 17.2695 81.9134 17.043C81.39 16.8086 80.7884 16.6914 80.1087 16.6914H76.2884V13.9375H80.1087C81.2494 13.9375 82.2923 14.1328 83.2376 14.5234C84.1908 14.9062 85.015 15.457 85.7103 16.1758C86.4056 16.8945 86.9408 17.7539 87.3158 18.7539C87.6986 19.7461 87.89 20.8516 87.89 22.0703V22.8789C87.89 24.0898 87.6986 25.1953 87.3158 26.1953C86.9408 27.1953 86.4056 28.0547 85.7103 28.7734C85.0228 29.4844 84.1986 30.0352 83.2376 30.4258C82.2845 30.8086 81.2298 31 80.0736 31ZM78.3509 13.9375V31H74.8353V13.9375H78.3509Z" fill="white"/>
<path d="M96.0697 31.2344C95.0853 31.2344 94.2025 31.0781 93.4212 30.7656C92.64 30.4453 91.9759 30.0039 91.429 29.4414C90.89 28.8789 90.4759 28.2266 90.1869 27.4844C89.8978 26.7344 89.7533 25.9375 89.7533 25.0938V24.625C89.7533 23.6641 89.89 22.7852 90.1634 21.9883C90.4369 21.1914 90.8275 20.5 91.3353 19.9141C91.8509 19.3281 92.4759 18.8789 93.2103 18.5664C93.9447 18.2461 94.7728 18.0859 95.6947 18.0859C96.5931 18.0859 97.39 18.2344 98.0853 18.5312C98.7806 18.8281 99.3626 19.25 99.8314 19.7969C100.308 20.3438 100.667 21 100.91 21.7656C101.152 22.5234 101.273 23.3672 101.273 24.2969V25.7031H91.1947V23.4531H97.9564V23.1953C97.9564 22.7266 97.8705 22.3086 97.6986 21.9414C97.5345 21.5664 97.2845 21.2695 96.9486 21.0508C96.6126 20.832 96.183 20.7227 95.6595 20.7227C95.2142 20.7227 94.8314 20.8203 94.5111 21.0156C94.1908 21.2109 93.929 21.4844 93.7259 21.8359C93.5306 22.1875 93.3822 22.6016 93.2806 23.0781C93.1869 23.5469 93.14 24.0625 93.14 24.625V25.0938C93.14 25.6016 93.2103 26.0703 93.3509 26.5C93.4994 26.9297 93.7064 27.3008 93.972 27.6133C94.2455 27.9258 94.5736 28.168 94.9564 28.3398C95.347 28.5117 95.7884 28.5977 96.2806 28.5977C96.89 28.5977 97.4564 28.4805 97.9798 28.2461C98.5111 28.0039 98.9681 27.6406 99.3509 27.1562L100.992 28.9375C100.726 29.3203 100.363 29.6875 99.9017 30.0391C99.4486 30.3906 98.9017 30.6797 98.2611 30.9062C97.6205 31.125 96.89 31.2344 96.0697 31.2344Z" fill="white"/>
<path d="M109.406 18.3203V20.7109H102.023V18.3203H109.406ZM103.851 15.1914H107.226V27.1797C107.226 27.5469 107.273 27.8281 107.367 28.0234C107.468 28.2188 107.617 28.3555 107.812 28.4336C108.007 28.5039 108.253 28.5391 108.55 28.5391C108.761 28.5391 108.949 28.5312 109.113 28.5156C109.285 28.4922 109.429 28.4688 109.546 28.4453L109.558 30.9297C109.269 31.0234 108.956 31.0977 108.62 31.1523C108.285 31.207 107.913 31.2344 107.507 31.2344C106.765 31.2344 106.117 31.1133 105.562 30.8711C105.015 30.6211 104.593 30.2227 104.296 29.6758C103.999 29.1289 103.851 28.4102 103.851 27.5195V15.1914Z" fill="white"/>
<path d="M117.163 31.2344C116.179 31.2344 115.296 31.0781 114.515 30.7656C113.734 30.4453 113.07 30.0039 112.523 29.4414C111.984 28.8789 111.57 28.2266 111.281 27.4844C110.992 26.7344 110.847 25.9375 110.847 25.0938V24.625C110.847 23.6641 110.984 22.7852 111.257 21.9883C111.531 21.1914 111.921 20.5 112.429 19.9141C112.945 19.3281 113.57 18.8789 114.304 18.5664C115.038 18.2461 115.867 18.0859 116.788 18.0859C117.687 18.0859 118.484 18.2344 119.179 18.5312C119.874 18.8281 120.456 19.25 120.925 19.7969C121.402 20.3438 121.761 21 122.003 21.7656C122.245 22.5234 122.367 23.3672 122.367 24.2969V25.7031H112.288V23.4531H119.05V23.1953C119.05 22.7266 118.964 22.3086 118.792 21.9414C118.628 21.5664 118.378 21.2695 118.042 21.0508C117.706 20.832 117.277 20.7227 116.753 20.7227C116.308 20.7227 115.925 20.8203 115.605 21.0156C115.285 21.2109 115.023 21.4844 114.82 21.8359C114.624 22.1875 114.476 22.6016 114.374 23.0781C114.281 23.5469 114.234 24.0625 114.234 24.625V25.0938C114.234 25.6016 114.304 26.0703 114.445 26.5C114.593 26.9297 114.8 27.3008 115.066 27.6133C115.339 27.9258 115.667 28.168 116.05 28.3398C116.441 28.5117 116.882 28.5977 117.374 28.5977C117.984 28.5977 118.55 28.4805 119.074 28.2461C119.605 28.0039 120.062 27.6406 120.445 27.1562L122.085 28.9375C121.82 29.3203 121.456 29.6875 120.995 30.0391C120.542 30.3906 119.995 30.6797 119.355 30.9062C118.714 31.125 117.984 31.2344 117.163 31.2344Z" fill="white"/>
<path d="M129.527 28.5977C129.941 28.5977 130.308 28.5195 130.628 28.3633C130.949 28.1992 131.199 27.9727 131.378 27.6836C131.566 27.3867 131.663 27.0391 131.671 26.6406H134.847C134.839 27.5312 134.601 28.3242 134.132 29.0195C133.663 29.707 133.035 30.25 132.245 30.6484C131.456 31.0391 130.574 31.2344 129.597 31.2344C128.613 31.2344 127.753 31.0703 127.019 30.7422C126.292 30.4141 125.687 29.9609 125.202 29.3828C124.718 28.7969 124.355 28.1172 124.113 27.3438C123.87 26.5625 123.749 25.7266 123.749 24.8359V24.4961C123.749 23.5977 123.87 22.7617 124.113 21.9883C124.355 21.207 124.718 20.5273 125.202 19.9492C125.687 19.3633 126.292 18.9062 127.019 18.5781C127.745 18.25 128.597 18.0859 129.574 18.0859C130.613 18.0859 131.523 18.2852 132.304 18.6836C133.093 19.082 133.71 19.6523 134.156 20.3945C134.609 21.1289 134.839 22 134.847 23.0078H131.671C131.663 22.5859 131.574 22.2031 131.402 21.8594C131.238 21.5156 130.995 21.2422 130.675 21.0391C130.363 20.8281 129.976 20.7227 129.515 20.7227C129.023 20.7227 128.62 20.8281 128.308 21.0391C127.995 21.2422 127.753 21.5234 127.581 21.8828C127.41 22.2344 127.288 22.6367 127.218 23.0898C127.156 23.5352 127.124 24.0039 127.124 24.4961V24.8359C127.124 25.3281 127.156 25.8008 127.218 26.2539C127.281 26.707 127.398 27.1094 127.57 27.4609C127.749 27.8125 127.995 28.0898 128.308 28.293C128.62 28.4961 129.027 28.5977 129.527 28.5977Z" fill="white"/>
<path d="M143.015 18.3203V20.7109H135.632V18.3203H143.015ZM137.46 15.1914H140.835V27.1797C140.835 27.5469 140.882 27.8281 140.976 28.0234C141.077 28.2188 141.226 28.3555 141.421 28.4336C141.617 28.5039 141.863 28.5391 142.16 28.5391C142.37 28.5391 142.558 28.5312 142.722 28.5156C142.894 28.4922 143.038 28.4688 143.156 28.4453L143.167 30.9297C142.878 31.0234 142.566 31.0977 142.23 31.1523C141.894 31.207 141.523 31.2344 141.117 31.2344C140.374 31.2344 139.726 31.1133 139.171 30.8711C138.624 30.6211 138.202 30.2227 137.906 29.6758C137.609 29.1289 137.46 28.4102 137.46 27.5195V15.1914Z" fill="white"/>
</svg>
