<svg width="118" height="46" viewBox="0 0 118 46" fill="none" xmlns="http://www.w3.org/2000/svg">
<path d="M0 8C0 3.58172 3.58172 0 8 0H110C114.418 0 118 3.58172 118 8V38C118 42.4183 114.418 46 110 46H8C3.58172 46 0 42.4183 0 38V8Z" fill="#91D16A"/>
<rect x="3.12583" y="4" width="111.748" height="38" rx="5" fill="black" fill-opacity="0.3"/>
<rect x="6.25166" y="8" width="105.497" height="30" rx="2" fill="#91D16A"/>
<circle cx="59" cy="23" r="9" fill="black" fill-opacity="0.3"/>
<path d="M19.7785 19.978V22.42H31.7465V19.978H19.7785ZM19.7785 24.686V27.128H31.7465V24.686H19.7785ZM19.7785 29.416V31.858H31.7465V29.416H19.7785ZM17.9745 15.182V32.958H20.6585V17.712H31.1525V32.914H33.9685V15.182H17.9745ZM24.2225 12.3C24.0685 13.444 23.6945 14.984 23.3425 16.084L25.7625 16.524C26.2465 15.556 26.8845 14.104 27.4125 12.63L24.2225 12.3Z" fill="white"/>
<path d="M47.8945 17.096V19.626H56.5405V17.096H47.8945ZM55.1765 17.096V17.668C55.0005 26.028 54.7805 29.174 54.2525 29.834C54.0105 30.12 53.7905 30.208 53.4385 30.208C52.9545 30.208 52.0085 30.208 50.9525 30.098C51.4145 30.824 51.7005 31.946 51.7665 32.694C52.8885 32.738 54.0105 32.738 54.7145 32.606C55.5065 32.474 56.0125 32.232 56.5405 31.484C57.2885 30.45 57.5085 27.216 57.7505 18.284C57.7505 17.976 57.7725 17.096 57.7725 17.096H55.1765ZM50.4025 12.718C50.3805 20.616 50.5125 27.15 46.5525 30.934C47.2345 31.374 48.0925 32.298 48.5325 32.958C52.8885 28.646 52.9765 21.276 52.9985 12.718H50.4025ZM38.5885 14.016V16.348H47.2565V14.016H38.5885ZM37.8625 19.142V21.518H47.6305V19.142H37.8625ZM44.1985 23.52C44.9685 25.434 45.8045 27.964 46.1125 29.482L48.4005 28.756C48.0485 27.238 47.1245 24.774 46.3105 22.926L44.1985 23.52ZM38.8305 30.582C39.4905 30.164 40.5245 29.812 47.1685 28.096C47.0365 27.546 46.8605 26.556 46.7945 25.852L39.6885 27.524L38.5665 28.36L38.8305 30.582ZM38.8085 30.582C38.8085 30.098 40.5245 29.218 40.5245 29.218V29.174C41.6245 26.974 42.8125 23.784 43.4725 20.902L40.8765 20.154C40.4145 22.926 39.4025 25.984 39.0725 26.754C38.6985 27.568 38.3905 28.074 37.9725 28.228C38.2585 28.866 38.6765 30.076 38.8085 30.582Z" fill="white"/>
<path d="M70.8845 16.238H76.0325V21.716H70.8845V16.238ZM68.2665 13.73V24.224H78.7825V13.73H68.2665ZM74.6025 26.754C75.7685 28.69 76.9785 31.264 77.3965 32.87L80.0365 31.858C79.5965 30.23 78.2765 27.766 77.0665 25.896L74.6025 26.754ZM69.6525 25.984C69.0365 28.074 67.8925 30.142 66.4625 31.44C67.1225 31.792 68.2885 32.518 68.7945 32.936C70.2465 31.44 71.5885 29.042 72.3585 26.6L69.6525 25.984ZM60.6105 14.258C61.7985 15.336 63.3825 16.832 64.0865 17.822L65.8905 15.996C65.1205 15.05 63.5145 13.642 62.3045 12.674L60.6105 14.258ZM62.5025 32.584C62.8985 32.056 63.6685 31.396 67.8265 27.854C67.4965 27.348 67.0125 26.292 66.7925 25.544L62.3485 29.284L61.8645 30.12L62.5025 32.584ZM59.6865 19.098V21.628H63.7125V19.098H59.6865ZM62.5025 32.584C62.5025 31.594 64.8565 29.24 64.8565 29.24V19.098H62.2825V27.986C62.2825 29.35 61.4685 30.406 60.9185 30.89C61.3585 31.242 62.2165 32.1 62.5025 32.584Z" fill="white"/>
<path d="M94.0065 15.006V27.458H96.5585V15.006H94.0065ZM98.6045 12.762V29.834C98.6045 30.208 98.4725 30.318 98.0765 30.318C97.6805 30.34 96.4265 30.34 95.1505 30.274C95.5245 31.044 95.9205 32.254 96.0085 33.002C97.9225 33.002 99.2205 32.914 100.101 32.474C100.937 32.034 101.223 31.308 101.223 29.834V12.762H98.6045ZM84.9645 15.6H89.2325V18.614H84.9645V15.6ZM82.5885 13.268V20.968H91.7625V13.268H82.5885ZM81.9725 22.794V25.17H90.7945V22.794H81.9725ZM89.7385 22.794V23.212C89.6065 27.898 89.4085 29.636 89.0565 30.076C88.8805 30.274 88.6825 30.34 88.3965 30.34C88.0445 30.34 87.3405 30.318 86.5705 30.252C86.9885 30.934 87.2525 31.968 87.2965 32.738C88.2645 32.76 89.1885 32.76 89.7385 32.65C90.3985 32.562 90.8385 32.342 91.3005 31.77C91.8725 31.044 92.0925 28.932 92.2685 23.806C92.2905 23.476 92.3125 22.794 92.3125 22.794H89.7385ZM85.3165 21.408C85.1625 25.896 84.9205 29.196 81.2685 31.11C81.8185 31.55 82.5445 32.452 82.8305 33.09C87.0545 30.758 87.6045 26.688 87.8025 21.408H85.3165Z" fill="white"/>
</svg>
