<svg width="40" height="40" viewBox="0 0 40 40" fill="none" xmlns="http://www.w3.org/2000/svg">
<circle cx="20" cy="20" r="20" fill="#CE4A6F"/>
<rect x="8.49997" y="10.5" width="23" height="19" rx="1.5" fill="white" fill-opacity="0.2" stroke="white"/>
<rect x="13" y="27" width="14" height="3" rx="1" fill="white"/>
<mask id="path-4-inside-1" fill="white">
<path fill-rule="evenodd" clip-rule="evenodd" d="M20 13C19.4477 13 19 13.4477 19 14V18C19 18.5523 19.4477 19 20 19H28C28.5523 19 29 18.5523 29 18V14C29 13.4477 28.5523 13 28 13H20ZM11 17C11 16.4477 11.4477 16 12 16H16C16.5523 16 17 16.4477 17 17V19C17 19.5523 16.5523 20 16 20H12C11.4477 20 11 19.5523 11 19V17ZM18 22C18 21.4477 18.4477 21 19 21H24C24.5523 21 25 21.4477 25 22V23C25 23.5523 24.5523 24 24 24H19C18.4477 24 18 23.5523 18 23V22Z"/>
</mask>
<path fill-rule="evenodd" clip-rule="evenodd" d="M20 13C19.4477 13 19 13.4477 19 14V18C19 18.5523 19.4477 19 20 19H28C28.5523 19 29 18.5523 29 18V14C29 13.4477 28.5523 13 28 13H20ZM11 17C11 16.4477 11.4477 16 12 16H16C16.5523 16 17 16.4477 17 17V19C17 19.5523 16.5523 20 16 20H12C11.4477 20 11 19.5523 11 19V17ZM18 22C18 21.4477 18.4477 21 19 21H24C24.5523 21 25 21.4477 25 22V23C25 23.5523 24.5523 24 24 24H19C18.4477 24 18 23.5523 18 23V22Z" fill="white" fill-opacity="0.2"/>
<path d="M20 14V14V12C18.8954 12 18 12.8954 18 14H20ZM20 18V14H18V18H20ZM20 18H18C18 19.1046 18.8954 20 20 20V18ZM28 18H20V20H28V18ZM28 18V20C29.1045 20 30 19.1046 30 18H28ZM28 14V18H30V14H28ZM28 14H30C30 12.8954 29.1045 12 28 12V14ZM20 14H28V12H20V14ZM12 15C10.8954 15 9.99997 15.8954 9.99997 17H12V15ZM16 15H12V17H16V15ZM18 17C18 15.8954 17.1045 15 16 15V17H18ZM18 19V17H16V19H18ZM16 21C17.1045 21 18 20.1046 18 19H16V21ZM12 21H16V19H12V21ZM9.99997 19C9.99997 20.1046 10.8954 21 12 21V19H12H9.99997ZM9.99997 17V19H12V17H9.99997ZM19 20C17.8954 20 17 20.8954 17 22H19V20ZM24 20H19V22H24V20ZM26 22C26 20.8954 25.1045 20 24 20V22H26ZM26 23V22H24V23H26ZM24 25C25.1045 25 26 24.1046 26 23H24V25ZM19 25H24V23H19V25ZM17 23C17 24.1046 17.8954 25 19 25V23H17ZM17 22V23H19V22H17Z" fill="white" mask="url(#path-4-inside-1)"/>
</svg>
